<?xml version="1.0" encoding="UTF-8"?>
<svg id="Capa_1" data-name="Capa 1" xmlns="http://www.w3.org/2000/svg" xmlns:xlink="http://www.w3.org/1999/xlink" viewBox="0 0 326 384">
  <defs>
    <style>
      .cls-1 {
        fill: #fff;
      }

      .cls-2 {
        fill: url(#Degradado_sin_nombre);
      }
    </style>
    <linearGradient id="Degradado_sin_nombre" data-name="Degradado sin nombre" x1="66.12" y1="124" x2="260.43" y2="318.31" gradientTransform="translate(0 386) scale(1 -1)" gradientUnits="userSpaceOnUse">
      <stop offset="0" stop-color="#f4845f"/>
      <stop offset=".29" stop-color="#f48860"/>
      <stop offset=".59" stop-color="#f59562"/>
      <stop offset=".9" stop-color="#f6a965"/>
      <stop offset="1" stop-color="#f7b267"/>
      <stop offset="1" stop-color="#bebebe"/>
    </linearGradient>
  </defs>
  <path class="cls-1" d="M167.19,324.96c32.29-.27,55.46-36.94,83.08-80.65,18.64-29.51,31.01-49.67,31.85-79.62,.27-9.48,.68-40.51-20.77-69.58-19.14-25.95-44.54-35.21-55.73-39.12-8.83-3.08-52.54-17.24-98.31,5.54-8.33,4.15-38.67,19.8-55.38,55.38-3.67,7.81-10.41,24.51-10.73,46.04-.74,49.38,32.9,85.12,61.27,115.27,29.43,31.27,44.14,46.9,64.73,46.73Z"/>
  <path class="cls-2" d="M190.5,30.1c97.9,19.6,142.9,136,82.2,215.4-7.1,9.3-14.8,18.2-23,26.6-27.8,28.5-56.5,56.4-84.9,84.1-.9,.9-1.8,.9-2.7,0-15.6-15.1-31.2-30.1-46.6-45-16-15.4-34.3-34.6-54.8-57.4-29-32.2-39.7-74.6-31.4-117,9.2-47.2,46.3-89.2,92.7-103,10.6-3.2,21.4-5.3,32.5-6.4,7.3-.7,12.5-.8,15.7-.2,6.8,1,14.5,1.8,20.3,2.9Zm-3.3,118.9c15.2,4.1,32.2-10.4,38.1-32.3,5.9-21.9-1.7-43-16.8-47-15.2-4.1-32.2,10.4-38.1,32.3-5.9,21.8,1.6,42.9,16.8,47Zm-47.7-.5c15.1-4.1,22.6-25.1,16.7-46.9h0c-5.9-21.8-23-36.1-38.1-32s-22.6,25.1-16.7,46.9h0c5.9,21.8,23,36.2,38.1,32Zm-42.3,33.9c10.6-6.1,12-23.4,3.2-38.7s-24.5-22.7-35.1-16.6-12,23.4-3.2,38.7c8.8,15.2,24.5,22.7,35.1,16.6Zm132.3-.1c10.5,6.1,26.1-1.3,35-16.5h0c8.8-15.2,7.5-32.5-3-38.6h0c-10.5-6.1-26.1,1.3-35,16.5h0c-8.8,15.2-7.5,32.5,3,38.6Zm-12.6,2.4c-33.1-37.6-81.6-34.6-111.1,5.1-10.6,14.3-14.4,30.3-11.2,48.1,6,33.1,45.7,38.6,73,37.8,14.5-.4,25.9-1.9,38.5-7.2,35.8-14.9,32.4-59.2,10.8-83.8Z"/>
</svg>