<?xml version="1.0" encoding="UTF-8"?>
<svg id="Capa_1" data-name="Capa 1" xmlns="http://www.w3.org/2000/svg" viewBox="0 0 619.85 620.73">
  <defs>
    <style>
      .cls-1 {
        fill: #fff;
      }
    </style>
  </defs>
  <path class="cls-1" d="M306.65,620.68C145.02,617.87,13.69,494.23,.8,333.21c-1.18-14.71-1.06-30.43,.37-47.15C9.38,189.8,57.96,105.96,138.04,52.4,251.51-23.5,399.99-16.06,505.53,68.95c92.4,74.43,131.35,195.43,107.43,310.84-5.75,27.75-10.52,40.11-20.83,61.37-9.13,18.82-16.96,29.96-32.14,54.31-30.86,49.51-127.98,127.39-253.34,125.21h0Zm181.26-95.82c.16,.32,61.53-33.96,92.78-146,16.95-60.77,10.19-120.77-14.04-178.38C519.72,88.9,403.87,19.31,283.21,30.11,161.19,41.03,58.79,130.5,33.17,250.28c-22.05,103.08,13.75,206.27,93.36,274.9,.43,.37,1.07,.32,1.44-.12,.05-.06,.09-.12,.13-.18,48.17-91.88,157.81-133.35,254.99-94.56,46.58,17.88,99.6,84.16,104.82,94.54Z"/>
  <circle class="cls-1" cx="307.93" cy="276.32" r="117.56"/>
</svg>